<svg width="24" height="25" viewBox="0 0 24 25" fill="none" xmlns="http://www.w3.org/2000/svg">
<path d="M11.25 5.75C11.0511 5.75 10.8603 5.82902 10.7197 5.96967C10.579 6.11032 10.5 6.30109 10.5 6.5C10.5 6.69891 10.579 6.88968 10.7197 7.03033C10.8603 7.17098 11.0511 7.25 11.25 7.25C12.5098 7.25 13.718 7.75045 14.6088 8.64124C15.4996 9.53204 16 10.7402 16 12C16 12.1989 16.079 12.3897 16.2197 12.5303C16.3603 12.671 16.5511 12.75 16.75 12.75C16.9489 12.75 17.1397 12.671 17.2803 12.5303C17.421 12.3897 17.5 12.1989 17.5 12C17.5 11.1792 17.3383 10.3663 17.0242 9.608C16.71 8.84965 16.2495 8.16061 15.6691 7.58023C15.0886 6.99985 14.3995 6.5395 13.6411 6.22547C12.8827 5.91143 12.0698 5.74987 11.249 5.75" fill="#F44322"/>
<path fill-rule="evenodd" clip-rule="evenodd" d="M2 11.999C2 6.89 6.142 2.75 11.25 2.75C16.358 2.75 20.5 6.89 20.5 11.998C20.5042 14.1934 19.7232 16.318 18.298 17.988L21.779 21.468C21.8507 21.5372 21.9078 21.6199 21.9472 21.7114C21.9865 21.8029 22.0073 21.9013 22.0082 22.0008C22.0091 22.1004 21.9902 22.1992 21.9525 22.2914C21.9148 22.3836 21.8592 22.4673 21.7888 22.5378C21.7184 22.6082 21.6347 22.664 21.5425 22.7017C21.4504 22.7395 21.3516 22.7585 21.2521 22.7577C21.1525 22.7569 21.054 22.7362 20.9625 22.697C20.871 22.6577 20.7882 22.6006 20.719 22.529L17.237 19.048C15.5672 20.4711 13.4439 21.2506 11.25 21.246C6.142 21.246 2 17.107 2 11.999ZM11.25 4.25C10.222 4.23348 9.20108 4.42169 8.24657 4.80365C7.29207 5.18561 6.42312 5.75369 5.69033 6.47479C4.95755 7.1959 4.37558 8.05561 3.97834 9.00386C3.58109 9.9521 3.37651 10.9699 3.37651 11.998C3.37651 13.0261 3.58109 14.0439 3.97834 14.9921C4.37558 15.9404 4.95755 16.8001 5.69033 17.5212C6.42312 18.2423 7.29207 18.8104 8.24657 19.1924C9.20108 19.5743 10.222 19.7625 11.25 19.746C12.278 19.7625 13.2989 19.5743 14.2534 19.1924C15.2079 18.8104 16.0769 18.2423 16.8097 17.5212C17.5425 16.8001 18.1244 15.9404 18.5217 14.9921C18.9189 14.0439 19.1235 13.0261 19.1235 11.998C19.1235 10.9699 18.9189 9.9521 18.5217 9.00386C18.1244 8.05561 17.5425 7.1959 16.8097 6.47479C16.0769 5.75369 15.2079 5.18561 14.2534 4.80365C13.2989 4.42169 12.278 4.23348 11.25 4.25Z" fill="#F44322"/>
</svg>
