<svg width="168" height="21" viewBox="0 0 168 21" fill="none" xmlns="http://www.w3.org/2000/svg">
<path d="M18.2708 -4.21439e-05H20.8753V20.8752H17.8136V6.93851L12.2071 16.6405L11.551 17.8135H9.34418L8.66821 16.6405L3.06171 6.93851V20.8752H6.82385e-07V-4.21439e-05H2.60444L3.06171 0.795208L10.4376 13.559L17.8136 0.795208L18.2708 -4.21439e-05ZM33.9251 14.4138V7.35601H37.0067V14.1156C37.0067 15.9845 36.2512 17.6744 35.0186 18.8871C34.6806 19.2251 34.3228 19.5233 33.9251 19.7818C32.8714 20.4776 31.599 20.8752 30.2471 20.8752H29.6308C28.259 20.8752 27.0065 20.4776 25.9329 19.7818C24.0839 18.569 22.8712 16.4815 22.8712 14.1156V7.35601H25.9329V14.4138C25.9329 16.2827 27.4637 17.8135 29.3326 17.8135H30.5453C32.4142 17.8135 33.9251 16.2827 33.9251 14.4138ZM38.9858 20.8752V1.82903H42.0475V20.8752H38.9858ZM47.0955 1.82903V7.35601H51.4097V10.4376H47.0955V14.4138C47.0955 16.2827 48.6264 17.8135 50.4952 17.8135H51.4097V20.8752H50.7934C49.4216 20.8752 48.1691 20.4776 47.0955 19.7818C45.2466 18.569 44.0338 16.4815 44.0338 14.1156V10.4376V7.35601V1.82903H47.0955ZM54.1673 20.8752V7.35601H57.229V20.8752H54.1673ZM55.6982 1.82903C56.9706 1.82903 58.0044 2.86286 58.0044 4.13525C58.0044 5.40765 56.9706 6.44148 55.6982 6.44148C54.4258 6.44148 53.392 5.40765 53.392 4.13525C53.392 2.86286 54.4258 1.82903 55.6982 1.82903ZM75.8186 3.04179L71.3453 6.54088L79.3575 20.8752H75.8584L68.8999 8.44948L63.0549 13.0222V20.8752H59.9931V-4.21439e-05H63.0549V9.12544L67.389 5.72575L69.8344 3.81715L73.91 0.616276L75.8186 3.04179ZM88.7259 7.35601C92.4437 7.35601 95.4855 10.378 95.4855 14.1156C95.4855 17.8533 92.4437 20.8752 88.7259 20.8752H88.1095C84.3719 20.8752 81.3499 17.8533 81.3499 14.1156C81.3499 10.378 84.3719 7.35601 88.1095 7.35601H88.7259ZM92.4039 14.4138V13.8174C92.4039 11.9486 90.8929 10.4376 89.0241 10.4376H87.8113C85.9425 10.4376 84.4116 11.9486 84.4116 13.8174V14.4138C84.4116 16.2827 85.9425 17.8135 87.8113 17.8135H89.0241C90.8929 17.8135 92.4039 16.2827 92.4039 14.4138ZM108.519 8.44948C108.916 8.70793 109.274 9.00615 109.612 9.34413C110.845 10.5569 111.6 12.2468 111.6 14.1156V20.8752H108.519V13.8174C108.519 11.9486 107.008 10.4376 105.139 10.4376H103.926C102.057 10.4376 100.526 11.9486 100.526 13.8174V20.8752H97.4646V14.1156C97.4646 11.7498 98.6773 9.66223 100.526 8.44948C101.6 7.77352 102.852 7.35601 104.224 7.35601H104.841C106.192 7.35601 107.465 7.77352 108.519 8.44948ZM124.633 8.44948C125.031 8.70793 125.389 9.00615 125.727 9.34413C126.959 10.5569 127.715 12.2468 127.715 14.1156V20.8752H124.633V13.8174C124.633 11.9486 123.122 10.4376 121.253 10.4376H120.041C118.172 10.4376 116.641 11.9486 116.641 13.8174V20.8752H113.579V14.1156C113.579 11.7498 114.792 9.66223 116.641 8.44948C117.715 7.77352 118.967 7.35601 120.339 7.35601H120.955C122.307 7.35601 123.58 7.77352 124.633 8.44948ZM136.672 7.35601C138.541 7.35601 140.231 8.1115 141.444 9.34413C142.676 10.5569 143.432 12.2468 143.432 14.1156C143.432 14.5331 143.392 14.9506 143.313 15.3483H132.497C132.895 16.7598 134.207 17.8135 135.758 17.8135H136.97C138.004 17.8135 138.959 17.3364 139.575 16.5809H142.955C141.981 19.0859 139.535 20.8752 136.672 20.8752H136.056C134.187 20.8752 132.497 20.1198 131.284 18.8871C130.052 17.6744 129.296 15.9845 129.296 14.1156C129.296 10.378 132.318 7.35601 136.056 7.35601H136.672ZM132.597 12.5848H140.112C139.615 11.3323 138.402 10.4376 136.97 10.4376H135.758C134.326 10.4376 133.094 11.3323 132.597 12.5848ZM151.096 10.4376C149.227 10.4376 147.696 11.9486 147.696 13.8174V14.4138C147.696 16.2827 149.227 17.8135 151.096 17.8135H152.309C153.74 17.8135 154.953 16.9189 155.45 15.6465H158.591C157.895 18.6485 155.211 20.8752 152.01 20.8752H151.394C147.656 20.8752 144.634 17.8533 144.634 14.1156C144.634 10.378 147.656 7.35601 151.394 7.35601H152.01C155.211 7.35601 157.895 9.58271 158.591 12.5848H155.45C154.953 11.3323 153.74 10.4376 152.309 10.4376H151.096ZM163.238 1.82903V7.35601H167.552V10.4376H163.238V14.4138C163.238 16.2827 164.768 17.8135 166.637 17.8135H167.552V20.8752H166.935C165.564 20.8752 164.311 20.4776 163.238 19.7818C161.389 18.569 160.176 16.4815 160.176 14.1156V10.4376V7.35601V1.82903H163.238Z" fill="white"/>
</svg>
