<svg width="21" height="21" viewBox="0 0 21 21" fill="none" xmlns="http://www.w3.org/2000/svg">
<path d="M2.38709 1.94906C2.46788 1.92521 2.55259 1.91751 2.63637 1.92642C2.72014 1.93534 2.80133 1.96068 2.87531 2.00099C2.94928 2.04131 3.01457 2.09582 3.06746 2.1614C3.12035 2.22698 3.15979 2.30234 3.18352 2.38317L3.65352 3.97433H16.1769C17.7493 3.97433 18.9499 5.44159 18.497 6.97379L17.0827 11.7592C16.7819 12.7796 15.8257 13.4598 14.7626 13.4598H6.9384C5.87534 13.4598 4.91996 12.7796 4.6183 11.7592L1.95469 2.74635C1.90644 2.5834 1.92489 2.40795 2.00597 2.2586C2.08706 2.10925 2.22415 1.99736 2.38709 1.94906ZM5.34638 16.6643C5.34638 16.1544 5.54895 15.6653 5.90953 15.3048C6.27011 14.9442 6.75917 14.7416 7.2691 14.7416C7.77904 14.7416 8.2681 14.9442 8.62868 15.3048C8.98926 15.6653 9.19183 16.1544 9.19183 16.6643C9.19183 17.1743 8.98926 17.6633 8.62868 18.0239C8.2681 18.3845 7.77904 18.5871 7.2691 18.5871C6.75917 18.5871 6.27011 18.3845 5.90953 18.0239C5.54895 17.6633 5.34638 17.1743 5.34638 16.6643ZM12.1827 16.6643C12.1827 16.4118 12.2325 16.1618 12.3291 15.9285C12.4257 15.6953 12.5674 15.4833 12.7459 15.3048C12.9244 15.1262 13.1364 14.9846 13.3697 14.888C13.6029 14.7913 13.853 14.7416 14.1055 14.7416C14.358 14.7416 14.608 14.7913 14.8413 14.888C15.0745 14.9846 15.2865 15.1262 15.465 15.3048C15.6436 15.4833 15.7852 15.6953 15.8818 15.9285C15.9785 16.1618 16.0282 16.4118 16.0282 16.6643C16.0282 17.1743 15.8256 17.6633 15.465 18.0239C15.1045 18.3845 14.6154 18.5871 14.1055 18.5871C13.5955 18.5871 13.1065 18.3845 12.7459 18.0239C12.3853 17.6633 12.1827 17.1743 12.1827 16.6643Z" fill="white"/>
</svg>
