<svg width="21" height="21" viewBox="0 0 21 21" fill="none" xmlns="http://www.w3.org/2000/svg">
<path d="M2.38712 1.94907C2.46791 1.92521 2.55262 1.91752 2.6364 1.92643C2.72017 1.93534 2.80137 1.96068 2.87534 2.001C2.94931 2.04132 3.01461 2.09583 3.06749 2.16141C3.12038 2.22698 3.15982 2.30235 3.18355 2.38318L3.65355 3.97434H16.1769C17.7493 3.97434 18.9499 5.4416 18.497 6.9738L17.0827 11.7593C16.7819 12.7796 15.8257 13.4598 14.7626 13.4598H6.93843C5.87537 13.4598 4.91999 12.7796 4.61833 11.7593L1.95472 2.74636C1.90647 2.58341 1.92492 2.40796 2.006 2.25861C2.08709 2.10925 2.22418 1.99737 2.38712 1.94907ZM5.34641 16.6643C5.34641 16.1544 5.54898 15.6653 5.90956 15.3048C6.27014 14.9442 6.7592 14.7416 7.26913 14.7416C7.77907 14.7416 8.26813 14.9442 8.62871 15.3048C8.98929 15.6653 9.19186 16.1544 9.19186 16.6643C9.19186 17.1743 8.98929 17.6633 8.62871 18.0239C8.26813 18.3845 7.77907 18.5871 7.26913 18.5871C6.7592 18.5871 6.27014 18.3845 5.90956 18.0239C5.54898 17.6633 5.34641 17.1743 5.34641 16.6643ZM12.1828 16.6643C12.1828 16.4118 12.2325 16.1618 12.3291 15.9285C12.4258 15.6953 12.5674 15.4833 12.7459 15.3048C12.9245 15.1262 13.1364 14.9846 13.3697 14.888C13.603 14.7913 13.853 14.7416 14.1055 14.7416C14.358 14.7416 14.608 14.7913 14.8413 14.888C15.0746 14.9846 15.2865 15.1262 15.4651 15.3048C15.6436 15.4833 15.7852 15.6953 15.8819 15.9285C15.9785 16.1618 16.0282 16.4118 16.0282 16.6643C16.0282 17.1743 15.8257 17.6633 15.4651 18.0239C15.1045 18.3845 14.6154 18.5871 14.1055 18.5871C13.5956 18.5871 13.1065 18.3845 12.7459 18.0239C12.3853 17.6633 12.1828 17.1743 12.1828 16.6643Z" fill="#272727"/>
</svg>
