<svg width="172" height="35" viewBox="0 0 172 35" fill="none" xmlns="http://www.w3.org/2000/svg">
<path d="M19.2649 8.12471H21.8693V29H18.8076V15.0633L13.2011 24.7653L12.5451 25.9383H10.3382L9.66228 24.7653L4.05577 15.0633V29H0.994061V8.12471H3.5985L4.05577 8.91996L11.4317 21.6837L18.8076 8.91996L19.2649 8.12471ZM34.9192 22.5386V15.4808H38.0008V22.2404C38.0008 24.1092 37.2453 25.7991 36.0127 27.0119C35.6747 27.3499 35.3168 27.6481 34.9192 27.9065C33.8655 28.6024 32.5931 29 31.2412 29H30.6249C29.253 29 28.0005 28.6024 26.9269 27.9065C25.078 26.6938 23.8652 24.6062 23.8652 22.2404V15.4808H26.9269V22.5386C26.9269 24.4074 28.4578 25.9383 30.3266 25.9383H31.5394C33.4082 25.9383 34.9192 24.4074 34.9192 22.5386ZM39.9799 29V9.95379H43.0416V29H39.9799ZM48.0896 9.95379V15.4808H52.4038V18.5624H48.0896V22.5386C48.0896 24.4074 49.6204 25.9383 51.4893 25.9383H52.4038V29H51.7875C50.4157 29 49.1632 28.6024 48.0896 27.9065C46.2406 26.6938 45.0279 24.6062 45.0279 22.2404V18.5624V15.4808V9.95379H48.0896ZM55.1614 29V15.4808H58.2231V29H55.1614ZM56.6922 9.95379C57.9646 9.95379 58.9985 10.9876 58.9985 12.26C58.9985 13.5324 57.9646 14.5662 56.6922 14.5662C55.4198 14.5662 54.386 13.5324 54.386 12.26C54.386 10.9876 55.4198 9.95379 56.6922 9.95379ZM76.8127 11.1665L72.3394 14.6656L80.3515 29H76.8524L69.894 16.5742L64.0489 21.1469V29H60.9872V8.12471H64.0489V17.2502L68.383 13.8505L70.8284 11.9419L74.9041 8.74103L76.8127 11.1665ZM89.7199 15.4808C93.4377 15.4808 96.4795 18.5027 96.4795 22.2404C96.4795 25.9781 93.4377 29 89.7199 29H89.1036C85.3659 29 82.344 25.9781 82.344 22.2404C82.344 18.5027 85.3659 15.4808 89.1036 15.4808H89.7199ZM93.398 22.5386V21.9422C93.398 20.0733 91.887 18.5624 90.0181 18.5624H88.8054C86.9366 18.5624 85.4057 20.0733 85.4057 21.9422V22.5386C85.4057 24.4074 86.9366 25.9383 88.8054 25.9383H90.0181C91.887 25.9383 93.398 24.4074 93.398 22.5386ZM109.513 16.5742C109.91 16.8327 110.268 17.1309 110.606 17.4689C111.839 18.6816 112.594 20.3715 112.594 22.2404V29H109.513V21.9422C109.513 20.0733 108.002 18.5624 106.133 18.5624H104.92C103.051 18.5624 101.52 20.0733 101.52 21.9422V29H98.4587V22.2404C98.4587 19.8745 99.6714 17.787 101.52 16.5742C102.594 15.8983 103.846 15.4808 105.218 15.4808H105.835C107.187 15.4808 108.459 15.8983 109.513 16.5742ZM125.627 16.5742C126.025 16.8327 126.383 17.1309 126.721 17.4689C127.953 18.6816 128.709 20.3715 128.709 22.2404V29H125.627V21.9422C125.627 20.0733 124.116 18.5624 122.247 18.5624H121.035C119.166 18.5624 117.635 20.0733 117.635 21.9422V29H114.573V22.2404C114.573 19.8745 115.786 17.787 117.635 16.5742C118.709 15.8983 119.961 15.4808 121.333 15.4808H121.949C123.301 15.4808 124.574 15.8983 125.627 16.5742ZM137.666 15.4808C139.535 15.4808 141.225 16.2363 142.438 17.4689C143.67 18.6816 144.426 20.3715 144.426 22.2404C144.426 22.6579 144.386 23.0754 144.307 23.473H133.491C133.889 24.8846 135.201 25.9383 136.752 25.9383H137.965C138.998 25.9383 139.953 25.4611 140.569 24.7057H143.949C142.975 27.2107 140.529 29 137.666 29H137.05C135.181 29 133.491 28.2445 132.278 27.0119C131.046 25.7991 130.29 24.1092 130.29 22.2404C130.29 18.5027 133.312 15.4808 137.05 15.4808H137.666ZM133.591 20.7095H141.106C140.609 19.457 139.396 18.5624 137.965 18.5624H136.752C135.32 18.5624 134.088 19.457 133.591 20.7095ZM152.09 18.5624C150.221 18.5624 148.69 20.0733 148.69 21.9422V22.5386C148.69 24.4074 150.221 25.9383 152.09 25.9383H153.303C154.734 25.9383 155.947 25.0436 156.444 23.7712H159.585C158.889 26.7733 156.205 29 153.004 29H152.388C148.65 29 145.628 25.9781 145.628 22.2404C145.628 18.5027 148.65 15.4808 152.388 15.4808H153.004C156.205 15.4808 158.889 17.7075 159.585 20.7095H156.444C155.947 19.457 154.734 18.5624 153.303 18.5624H152.09ZM164.232 9.95379V15.4808H168.546V18.5624H164.232V22.5386C164.232 24.4074 165.762 25.9383 167.631 25.9383H168.546V29H167.93C166.558 29 165.305 28.6024 164.232 27.9065C162.383 26.6938 161.17 24.6062 161.17 22.2404V18.5624V15.4808V9.95379H164.232Z" fill="#F44322"/>
</svg>
